<svg width="450" height="450" viewBox="0 0 450 450" fill="none" xmlns="http://www.w3.org/2000/svg">
<path d="M179.35 153.12C180.36 186.31 169.83 185.15 159.73 181.23C149.82 177.38 140.11 168.64 140.11 153.12C140.11 137.6 149.35 128.12 159.73 125.01C170.11 121.9 178.29 118.12 179.35 153.12Z" fill="#010000"/>
<path d="M174.86 206.8C174.86 206.8 179.67 206.58 182.29 197.84C184.91 189.1 184.26 175.77 184.26 175.77L220.97 178.61C220.97 178.61 218.35 191.72 220.97 198.28C223.59 204.84 228.62 210.08 228.62 210.08C228.62 210.08 234.08 240.89 208.73 239.36C183.38 237.83 174.86 215.54 174.86 206.8Z" fill="#EAA094"/>
<path d="M232.68 387.55C233.94 362.52 238.13 275.19 236.27 250.94C234.08 222.53 225.78 206.79 225.78 206.79C225.78 206.79 225.78 225.16 203.05 227.78C180.32 230.4 174.86 206.8 174.86 206.8L146 387.56H232.69L232.68 387.55Z" fill="white"/>
<path d="M154.7 387.55C157 377.16 161.47 354.94 169.61 308.42C183.38 229.74 180.46 202.2 180.46 202.2C180.46 202.2 162.4 205.48 134.2 234.33C110.38 258.7 83.7503 357.49 76.0703 387.55H154.7Z" fill="#F4AF0E"/>
<path d="M149.81 274C149.81 274 141.42 313.66 125.25 349.39L99.9004 334.31C99.9004 334.31 145.09 276.07 149.81 273.99V274Z" fill="#010000"/>
<path d="M224.06 387.55H290.91C296.7 355.19 307.21 237.45 222.88 202.2C222.88 202.2 239.05 299.59 224.06 387.55Z" fill="#F4AF0E"/>
<path d="M271.3 332.21L270.73 332.18C274.12 270.29 256.77 244.06 256.59 243.8L257.06 243.48C257.24 243.74 274.71 270.11 271.3 332.21Z" fill="black"/>
<path d="M180.47 202.2C180.47 202.2 132.97 211.22 111.99 238.1C91.0099 264.98 65.3799 324.81 65.3799 324.81C65.3799 324.81 97.1799 322.52 112.91 334.32C112.91 334.32 147.99 286.79 153.89 262.53C159.79 238.27 180.48 202.21 180.48 202.21L180.47 202.2Z" fill="#F4AF0E"/>
<path d="M65.3703 324.81C65.3703 324.81 57.1703 339.23 62.4203 351.36C67.6703 363.49 74.8803 370.05 93.5603 373.32C112.25 376.6 173.22 378.57 173.22 378.57L178.79 359.56C178.79 359.56 154.32 351.65 136.83 346.12C124.08 342.09 94.2103 308.09 65.3703 324.81Z" fill="#EAA094"/>
<path d="M236.74 158.94C236.63 160.57 236.47 162.21 236.24 163.84C235.95 165.94 235.56 168.03 235.09 170.08C233.12 178.69 229.67 186.56 225.56 191.01C223.83 192.89 221.97 194.16 220.07 194.63C211.74 196.66 196.57 193.73 189.5 183.42C183.31 174.4 178.58 169.87 179.45 146.27C180.32 122.66 196.06 120.7 196.06 120.7C234.3 108.46 237.8 142.77 236.74 158.94Z" fill="#EAA094"/>
<path d="M206.53 150.69L204.44 148.78C206.54 146.48 212.01 143.05 217.73 146.54L216.25 148.96C211.12 145.82 206.72 150.49 206.54 150.69H206.53Z" fill="black"/>
<path d="M228.79 149.92L226.29 148.58C226.37 148.44 228.17 145.13 231.46 144.61C233.55 144.28 235.65 145.11 237.71 147.08L235.75 149.13C234.37 147.81 233.07 147.23 231.92 147.41C230.02 147.7 228.8 149.91 228.78 149.93L228.79 149.92Z" fill="black"/>
<path d="M214.2 155.3C214.2 156.49 213.54 157.46 212.72 157.46C211.9 157.46 211.24 156.49 211.24 155.3C211.24 154.11 211.9 153.14 212.72 153.14C213.54 153.14 214.2 154.11 214.2 155.3Z" fill="black"/>
<path d="M232.14 157.46C232.958 157.46 233.62 156.493 233.62 155.3C233.62 154.107 232.958 153.14 232.14 153.14C231.323 153.14 230.66 154.107 230.66 155.3C230.66 156.493 231.323 157.46 232.14 157.46Z" fill="black"/>
<path d="M185.68 154.84C185.68 154.84 186.17 154.64 187.02 154.25C191.27 152.29 204.5 145.53 210.1 135.01C210.1 135.01 226.33 149.27 238.46 149.11C238.46 149.11 238.79 121.05 220.43 118.11C202.07 115.18 171.08 118.78 172.57 154.19L185.68 154.85V154.84Z" fill="#010000"/>
<path d="M180.351 170.41C184.653 170.41 188.141 165.642 188.141 159.76C188.141 153.879 184.653 149.11 180.351 149.11C176.048 149.11 172.561 153.879 172.561 159.76C172.561 165.642 176.048 170.41 180.351 170.41Z" fill="#EAA094"/>
<path d="M165.46 392.99L201.99 285.03H376.57L338.11 392.99H165.46Z" fill="#010000"/>
<path d="M188.13 382.07H73.8896V393H188.13V382.07Z" fill="#010000"/>
<path d="M225.56 191C223.83 192.88 221.98 194.15 220.07 194.62C211.74 196.65 196.57 193.72 189.5 183.41C189.5 183.41 205.78 198.15 225.56 191Z" fill="#010000"/>
<path d="M270.04 207.59C280.478 207.59 288.94 198.511 288.94 187.31C288.94 176.11 280.478 167.03 270.04 167.03C259.601 167.03 251.14 176.11 251.14 187.31C251.14 198.511 259.601 207.59 270.04 207.59Z" fill="#D033A8"/>
<path d="M268.98 200.071L256.83 188.241L260.79 184.171L268.3 191.491L278.99 177.141L283.54 180.531L268.98 200.071Z" fill="white"/>
<path d="M124.86 170.41H28V294.88H124.86V170.41Z" fill="#4459D8"/>
<path d="M98.2897 267.28H57.8097C55.2297 267.28 53.1396 265.19 53.1396 262.61C53.1396 260.03 55.2297 257.94 57.8097 257.94H98.2897C100.87 257.94 102.96 260.03 102.96 262.61C102.96 265.19 100.87 267.28 98.2897 267.28Z" fill="#D033A8"/>
<path d="M61.1597 281.67C61.1597 284.3 59.0297 286.43 56.3997 286.43C53.7697 286.43 51.6396 284.3 51.6396 281.67C51.6396 279.04 53.7697 276.91 56.3997 276.91C59.0297 276.91 61.1597 279.04 61.1597 281.67Z" fill="#E2E6F0"/>
<path d="M74.5093 281.67C74.5093 284.3 72.3793 286.43 69.7493 286.43C67.1193 286.43 64.9893 284.3 64.9893 281.67C64.9893 279.04 67.1193 276.91 69.7493 276.91C72.3793 276.91 74.5093 279.04 74.5093 281.67Z" fill="#E2E6F0"/>
<path d="M87.8597 281.67C87.8597 284.3 85.7299 286.43 83.0999 286.43C80.4699 286.43 78.3398 284.3 78.3398 281.67C78.3398 279.04 80.4699 276.91 83.0999 276.91C85.7299 276.91 87.8597 279.04 87.8597 281.67Z" fill="#E2E6F0"/>
<path d="M101.209 281.67C101.209 284.3 99.0795 286.43 96.4495 286.43C93.8195 286.43 91.6895 284.3 91.6895 281.67C91.6895 279.04 93.8195 276.91 96.4495 276.91C99.0795 276.91 101.209 279.04 101.209 281.67Z" fill="#E2E6F0"/>
<path d="M111.981 251.65H41.0605V192.54H111.981V251.65Z" fill="white"/>
<path d="M112.27 251.94H40.7803V192.26H112.27V251.94ZM41.3503 251.37H111.7V192.83H41.3503V251.37Z" fill="black"/>
<path d="M114.44 183.18H37.6104C35.5604 183.18 33.9004 181.52 33.9004 179.47C33.9004 177.42 35.5604 175.76 37.6104 175.76H114.44C116.49 175.76 118.15 177.42 118.15 179.47C118.15 181.52 116.49 183.18 114.44 183.18Z" fill="#0C0D41"/>
<path d="M111.867 192.43L40.9414 251.544L41.3063 251.982L112.232 192.868L111.867 192.43Z" fill="black"/>
<path d="M41.2283 192.301L40.8633 192.739L111.789 251.853L112.154 251.415L41.2283 192.301Z" fill="black"/>
<path d="M315.041 90.1494H255.381V144.399H315.041V90.1494Z" fill="white"/>
<path d="M315.331 144.679H255.101V89.8594H315.331V144.679ZM255.671 144.109H314.76V90.4294H255.671V144.109Z" fill="black"/>
<path d="M285.211 136.55C295.859 136.55 304.491 127.918 304.491 117.27C304.491 106.622 295.859 97.9902 285.211 97.9902C274.563 97.9902 265.931 106.622 265.931 117.27C265.931 127.918 274.563 136.55 285.211 136.55Z" fill="white"/>
<path d="M285.21 136.83C274.42 136.83 265.65 128.06 265.65 117.27C265.65 106.48 274.43 97.71 285.21 97.71C295.99 97.71 304.77 106.48 304.77 117.27C304.77 128.06 296 136.83 285.21 136.83ZM285.21 98.28C274.74 98.28 266.22 106.8 266.22 117.27C266.22 127.74 274.74 136.26 285.21 136.26C295.68 136.26 304.2 127.74 304.2 117.27C304.2 106.8 295.68 98.28 285.21 98.28Z" fill="black"/>
<mask id="mask0_35_23132" style="mask-type:luminance" maskUnits="userSpaceOnUse" x="265" y="97" width="40" height="40">
<mask id="mask1_35_23132" style="mask-type:luminance" maskUnits="userSpaceOnUse" x="265" y="97" width="40" height="40">
<path d="M285.211 136.55C295.859 136.55 304.491 127.918 304.491 117.27C304.491 106.622 295.859 97.9902 285.211 97.9902C274.563 97.9902 265.931 106.622 265.931 117.27C265.931 127.918 274.563 136.55 285.211 136.55Z" fill="white"/>
</mask>
<g mask="url(#mask1_35_23132)">
<path d="M285.21 136.83C274.42 136.83 265.65 128.06 265.65 117.27C265.65 106.48 274.43 97.71 285.21 97.71C295.99 97.71 304.77 106.48 304.77 117.27C304.77 128.06 296 136.83 285.21 136.83ZM285.21 98.28C274.74 98.28 266.22 106.8 266.22 117.27C266.22 127.74 274.74 136.26 285.21 136.26C295.68 136.26 304.2 127.74 304.2 117.27C304.2 106.8 295.68 98.28 285.21 98.28Z" fill="white"/>
</g>
</mask>
<g mask="url(#mask0_35_23132)">
<path d="M288.271 116.36C290.491 115.24 292.001 112.95 292.001 110.3C292.001 106.55 288.961 103.51 285.211 103.51C281.461 103.51 278.421 106.55 278.421 110.3C278.421 112.95 279.941 115.25 282.151 116.36C277.081 116.47 273.011 120.61 273.011 125.71V140.75H297.401V125.71C297.401 120.62 293.331 116.48 288.261 116.36H288.271Z" fill="#4459D8"/>
</g>
<path d="M259.031 86.8496H252.311V93.5696H259.031V86.8496Z" fill="#F4AF0E"/>
<path d="M318.401 86.8496H311.681V93.5696H318.401V86.8496Z" fill="#F4AF0E"/>
<path d="M259.031 86.8496H252.311V93.5696H259.031V86.8496Z" fill="#010000"/>
<path d="M318.401 86.8496H311.681V93.5696H318.401V86.8496Z" fill="#010000"/>
<path d="M259.031 141.029H252.311V147.749H259.031V141.029Z" fill="#010000"/>
<path d="M318.401 141.029H311.681V147.749H318.401V141.029Z" fill="#010000"/>
<path d="M144.12 56H117.9C110.903 56 105.23 61.6726 105.23 68.67V94.89C105.23 101.887 110.903 107.56 117.9 107.56H144.12C151.118 107.56 156.79 101.887 156.79 94.89V68.67C156.79 61.6726 151.118 56 144.12 56Z" fill="#F4AF0E"/>
<path d="M136.481 90.9395C135.091 90.9395 133.681 90.7295 132.301 90.2995C126.231 88.3995 122.241 82.4095 122.791 76.0795C123.511 67.8595 131.141 62.2495 139.031 63.7595C147.271 65.3395 152.381 74.0195 149.221 82.2395C148.531 84.0495 147.441 85.6995 146.041 87.0395C143.381 89.5995 139.981 90.9395 136.481 90.9395ZM136.451 66.3495C130.411 66.3495 125.121 71.4195 125.601 78.1595C125.661 79.0695 125.861 79.9595 126.171 80.8195C127.561 84.5995 130.651 87.1895 134.411 87.9095C138.171 88.6295 141.991 87.3695 144.681 84.3695C145.281 83.6995 145.791 82.9395 146.191 82.1195C149.471 75.3395 145.351 67.8495 138.511 66.5395C137.821 66.4095 137.141 66.3495 136.461 66.3495H136.451Z" fill="white"/>
<path d="M126.152 84.1415L119.224 90.3906L121.126 92.4995L128.054 86.2504L126.152 84.1415Z" fill="white"/>
<path d="M122.029 87.2184L111.967 96.2939L114.626 99.2419L124.688 90.1664L122.029 87.2184Z" fill="white"/>
<path d="M103.081 159.471L101.941 156.831L100.211 157.581C99.8407 156.991 99.4107 156.461 98.9407 155.981L100.071 154.471L97.7606 152.751L96.6306 154.271C96.0306 153.951 95.3907 153.701 94.7307 153.521L94.9507 151.641L92.0907 151.311L91.8706 153.191C91.2006 153.211 90.5207 153.311 89.8507 153.491L89.1007 151.751L86.4607 152.891L87.2107 154.621C86.6207 154.991 86.0807 155.411 85.6007 155.891L84.0907 154.771L82.3706 157.081L83.8806 158.201C83.5606 158.811 83.3006 159.451 83.1206 160.111L81.2606 159.891L80.9307 162.751L82.7806 162.971C82.8006 163.651 82.9007 164.331 83.0707 165.011L81.3606 165.751L82.5006 168.391L84.2007 167.661C84.5707 168.261 85.0007 168.801 85.4807 169.281L84.3806 170.761L86.6907 172.481L87.7906 171.001C88.4006 171.321 89.0507 171.581 89.7107 171.761L89.5006 173.591L92.3606 173.921L92.5707 172.091C93.2507 172.071 93.9406 171.971 94.6206 171.791L95.3507 173.481L97.9906 172.341L97.2606 170.641C97.8506 170.271 98.4006 169.841 98.8806 169.361L100.361 170.461L102.081 168.151L100.591 167.041C100.911 166.431 101.161 165.791 101.351 165.121L103.201 165.341L103.531 162.481L101.671 162.261C101.641 161.581 101.541 160.901 101.371 160.231L103.091 159.491L103.081 159.471ZM93.4707 165.521C91.8507 166.221 89.9806 165.471 89.2806 163.861C88.5806 162.241 89.3307 160.371 90.9407 159.671C92.5607 158.971 94.4306 159.721 95.1306 161.331C95.8306 162.951 95.0807 164.821 93.4707 165.521Z" fill="#010000"/>
<path d="M119.851 135.55C119.771 135.37 119.691 135.18 119.601 135.01L121.74 133.33L117.87 128.38L115.541 130.2C115.071 129.86 114.581 129.56 114.061 129.29L114.851 126.39L108.791 124.74L107.961 127.79C107.301 127.79 106.631 127.85 105.971 127.96L104.711 125.04L98.9406 127.53L100.201 130.45C99.9606 130.63 99.7305 130.82 99.5105 131.02L96.8605 129.28L93.4205 134.54L95.9706 136.21C95.8306 136.6 95.7006 136.99 95.6006 137.39L92.6006 137.46L92.7605 143.74L95.5405 143.67C95.6805 144.26 95.8706 144.85 96.1006 145.43L93.9606 147.1L97.8306 152.05L99.7805 150.52C100.311 150.97 100.881 151.36 101.471 151.72L100.841 154.05L106.901 155.7L107.49 153.52C108.35 153.56 109.221 153.51 110.091 153.37L110.971 155.42L116.74 152.93L115.86 150.88C116.24 150.59 116.611 150.27 116.951 149.94L118.831 151.17L122.271 145.91L120.281 144.61C120.441 144.1 120.581 143.58 120.681 143.05L123.11 142.99L122.951 136.71L120.301 136.78C120.171 136.37 120.021 135.97 119.851 135.57V135.55ZM110.941 147.38C106.981 149.09 102.381 147.26 100.671 143.3C98.9605 139.34 100.79 134.74 104.75 133.03C108.71 131.32 113.311 133.15 115.021 137.11C116.731 141.07 114.901 145.67 110.941 147.38Z" fill="#010000"/>
<path d="M102.13 159.051L100.99 156.411L99.2604 157.161C98.8904 156.571 98.4604 156.041 97.9904 155.561L99.1204 154.051L96.8104 152.331L95.6804 153.851C95.0804 153.531 94.4404 153.281 93.7804 153.101L94.0004 151.221L91.1404 150.891L90.9204 152.771C90.2504 152.791 89.5704 152.891 88.9004 153.071L88.1504 151.331L85.5104 152.471L86.2604 154.201C85.6704 154.571 85.1304 154.991 84.6504 155.471L83.1404 154.351L81.4204 156.661L82.9304 157.781C82.6104 158.391 82.3504 159.031 82.1704 159.691L80.3104 159.471L79.9805 162.331L81.8304 162.551C81.8504 163.231 81.9504 163.911 82.1204 164.591L80.4104 165.331L81.5504 167.971L83.2504 167.241C83.6204 167.841 84.0504 168.381 84.5304 168.861L83.4304 170.341L85.7404 172.061L86.8405 170.581C87.4505 170.901 88.1004 171.161 88.7604 171.341L88.5504 173.171L91.4104 173.501L91.6204 171.671C92.3004 171.651 92.9904 171.551 93.6704 171.371L94.4004 173.061L97.0404 171.921L96.3104 170.221C96.9004 169.851 97.4504 169.421 97.9304 168.941L99.4104 170.041L101.13 167.731L99.6404 166.621C99.9604 166.011 100.21 165.371 100.4 164.701L102.25 164.921L102.58 162.061L100.72 161.841C100.69 161.161 100.59 160.481 100.42 159.811L102.14 159.071L102.13 159.051ZM92.5204 165.101C90.9004 165.801 89.0304 165.051 88.3304 163.441C87.6304 161.821 88.3804 159.951 89.9904 159.251C91.6104 158.551 93.4804 159.301 94.1804 160.911C94.8804 162.531 94.1304 164.401 92.5204 165.101Z" fill="#F4AF0E"/>
<path d="M118.91 135.13C118.83 134.95 118.75 134.76 118.66 134.59L120.8 132.91L116.93 127.96L114.6 129.78C114.13 129.44 113.64 129.14 113.12 128.87L113.91 125.97L107.85 124.32L107.02 127.37C106.36 127.37 105.69 127.43 105.03 127.54L103.77 124.62L98.0001 127.11L99.2601 130.03C99.0201 130.21 98.7902 130.4 98.5702 130.6L95.9202 128.86L92.4802 134.12L95.0302 135.79C94.8902 136.18 94.7602 136.57 94.6602 136.97L91.6602 137.04L91.8202 143.32L94.6002 143.25C94.7402 143.84 94.9302 144.43 95.1602 145.01L93.0201 146.68L96.8901 151.63L98.8402 150.1C99.3702 150.55 99.9402 150.94 100.53 151.3L99.9001 153.63L105.96 155.28L106.55 153.1C107.41 153.14 108.28 153.09 109.15 152.95L110.03 155L115.8 152.51L114.92 150.46C115.3 150.17 115.67 149.85 116.01 149.52L117.89 150.75L121.33 145.49L119.34 144.19C119.5 143.68 119.64 143.16 119.74 142.63L122.17 142.57L122.01 136.29L119.36 136.36C119.23 135.95 119.08 135.55 118.91 135.15V135.13ZM110 146.96C106.04 148.67 101.44 146.84 99.7302 142.88C98.0202 138.92 99.8502 134.32 103.81 132.61C107.77 130.9 112.37 132.73 114.08 136.69C115.79 140.65 113.96 145.25 110 146.96Z" fill="#D033A8"/>
<path d="M207.453 284.815L171.834 392.771L173.182 393.215L208.802 285.26L207.453 284.815Z" fill="#E2E6F0"/>
<path d="M274.4 359.62C270.46 359.62 266.96 358.26 264.4 355.69C261.4 352.69 260.04 348.4 260.59 343.63C261.13 338.92 263.47 334.28 267.18 330.58C270.88 326.88 275.52 324.54 280.23 323.99C285 323.44 289.29 324.79 292.29 327.79C295.29 330.79 296.65 335.08 296.1 339.85C295.56 344.56 293.22 349.2 289.51 352.9C285.81 356.6 281.17 358.94 276.46 359.49C275.76 359.57 275.07 359.61 274.4 359.61V359.62ZM282.28 325.3C281.66 325.3 281.03 325.34 280.39 325.41C276 325.92 271.66 328.11 268.18 331.59C264.7 335.07 262.51 339.4 262 343.8C261.5 348.13 262.71 352 265.4 354.69C268.09 357.38 271.96 358.59 276.29 358.09C280.69 357.58 285.02 355.39 288.5 351.91C291.98 348.43 294.17 344.1 294.68 339.7C295.18 335.37 293.97 331.5 291.28 328.81C288.99 326.52 285.84 325.3 282.28 325.3Z" fill="#E2E6F0"/>
<path d="M420.02 195.16H302.66V267.28H420.02V195.16Z" fill="white"/>
<path d="M420.3 267.56H302.37V194.87H420.3V267.56ZM302.94 266.99H419.73V195.44H302.94V266.99Z" fill="black"/>
<path d="M422.08 193.23H300.59V203.41H422.08V193.23Z" fill="#4459D8"/>
<path d="M410.33 254.1H366.86V217.19H410.33V254.1Z" fill="white"/>
<path d="M410.61 254.38H366.57V216.9H410.61V254.38ZM367.14 253.81H410.04V217.47H367.14V253.81Z" fill="black"/>
<path d="M299.38 250.94V274.33L319.71 262.63L299.38 250.94Z" fill="#010000"/>
<path d="M295.41 250.94V274.33L315.74 262.63L295.41 250.94Z" fill="#D033A8"/>
<path d="M356.8 217.61H308.61V222.53H356.8V217.61Z" fill="white"/>
<path d="M357.08 222.82H308.32V217.33H357.08V222.82ZM308.89 222.25H356.51V217.9H308.89V222.25Z" fill="black"/>
<path d="M356.8 233.19H308.61V238.11H356.8V233.19Z" fill="white"/>
<path d="M357.08 238.39H308.32V232.9H357.08V238.39ZM308.89 237.82H356.51V233.47H308.89V237.82Z" fill="black"/>
<path d="M309.54 196.33H305.57V200.3H309.54V196.33Z" fill="white"/>
<path d="M318.31 196.33H314.34V200.3H318.31V196.33Z" fill="white"/>
<path d="M327.09 196.33H323.12V200.3H327.09V196.33Z" fill="white"/>
<path d="M316.57 183.86L308.17 177.09L316.55 169.36L316.94 169.78L309.04 177.06L316.92 183.41L316.57 183.86Z" fill="black"/>
<path d="M325.85 183.86L325.49 183.41L333.37 177.06L325.48 169.78L325.86 169.36L334.24 177.09L325.85 183.86Z" fill="black"/>
<path d="M323.998 168.544L317.852 185.568L318.388 185.762L324.534 168.737L323.998 168.544Z" fill="black"/>
<path d="M369.01 248.37L382.25 225.66L394.18 243.26L399.47 235.64L408.18 248.37H369.01Z" fill="#F4AF0E"/>
<path d="M399.18 231.22C401.577 231.22 403.52 229.277 403.52 226.88C403.52 224.483 401.577 222.54 399.18 222.54C396.783 222.54 394.84 224.483 394.84 226.88C394.84 229.277 396.783 231.22 399.18 231.22Z" fill="#F4AF0E"/>
<path d="M375.151 267.86C375.151 269.32 373.96 270.51 372.5 270.51C371.04 270.51 369.851 269.32 369.851 267.86C369.851 266.4 371.04 265.21 372.5 265.21C373.96 265.21 375.151 266.4 375.151 267.86Z" fill="#F4AF0E"/>
<path d="M384.241 270.51C385.704 270.51 386.891 269.324 386.891 267.86C386.891 266.396 385.704 265.21 384.241 265.21C382.777 265.21 381.591 266.396 381.591 267.86C381.591 269.324 382.777 270.51 384.241 270.51Z" fill="#F4AF0E"/>
<path d="M395.97 270.51C397.434 270.51 398.62 269.324 398.62 267.86C398.62 266.396 397.434 265.21 395.97 265.21C394.507 265.21 393.32 266.396 393.32 267.86C393.32 269.324 394.507 270.51 395.97 270.51Z" fill="#F4AF0E"/>
<path d="M205.65 95.7298C205.65 95.7298 204.56 90.6498 200.85 87.9698C196.3 84.6798 197.14 72.6598 208.66 72.5898C209.95 72.5898 211.97 73.1698 211.97 73.1698C219.23 75.6398 219.27 85.1598 215.39 87.9698C211.68 90.6498 210.59 95.7298 210.59 95.7298H205.64H205.65Z" fill="#F4AF0E"/>
<path d="M204.02 94.4297V99.0297C204.02 101.35 205.65 103.23 207.66 103.23H208.58C210.59 103.23 212.22 101.35 212.22 99.0297V94.4297H204.01H204.02Z" fill="#010000"/>
<path d="M206.28 95.3703C205.88 94.2303 204.6 90.4203 204.1 87.2403C203.77 87.1103 203.399 86.8203 202.999 86.2603C202.119 85.0203 202.2 83.6603 203.23 82.5503C204.94 80.7003 208.92 79.8703 211.71 81.5303C213.18 82.4103 213.919 83.6703 213.739 85.0003C213.599 86.0303 212.9 86.9103 212.05 87.1403C211.98 87.1603 211.92 87.1703 211.85 87.1803C211.35 90.5303 210.23 94.6503 210.04 95.3403L209.489 95.1903C210.139 92.8203 210.89 89.6503 211.28 87.1603C210.88 87.0703 210.51 86.8303 210.21 86.4503C209.43 85.4703 209.209 84.3203 209.609 83.3803C209.849 82.8203 210.289 82.4503 210.759 82.4103C211.159 82.3703 211.54 82.5803 211.81 82.9903C212.18 83.5503 212.15 84.9203 211.94 86.5703C212.56 86.3803 213.08 85.6903 213.18 84.9103C213.33 83.8203 212.69 82.7603 211.43 82.0103C208.91 80.5103 205.19 81.2703 203.66 82.9203C203.06 83.5703 202.55 84.6103 203.48 85.9103C203.67 86.1703 203.839 86.3703 204.019 86.5103C203.789 84.5803 203.92 83.0003 204.84 82.6003C205.41 82.3503 205.92 82.5103 206.19 83.0203C206.72 84.0403 206.27 86.4603 205.18 87.1303C205.06 87.2003 204.9 87.2703 204.72 87.3003C205.14 89.7803 206.03 92.8703 206.83 95.1603L206.29 95.3503L206.28 95.3703ZM205.34 83.0703C205.26 83.0703 205.17 83.0903 205.05 83.1403C204.39 83.4303 204.339 84.8703 204.609 86.7503C204.699 86.7403 204.779 86.7103 204.859 86.6603C205.679 86.1603 206.07 84.0903 205.66 83.3003C205.59 83.1703 205.5 83.0603 205.33 83.0603L205.34 83.0703ZM210.84 82.9903H210.8C210.55 83.0103 210.279 83.2603 210.129 83.6203C210.009 83.9003 209.689 84.9003 210.649 86.1103C210.859 86.3803 211.099 86.5403 211.359 86.6103C211.579 85.0103 211.61 83.7603 211.33 83.3203C211.23 83.1703 211.07 82.9903 210.84 82.9903Z" fill="black"/>
<path d="M223.71 171.04C222.72 171.04 221.62 170.93 220.4 170.69L220.51 170.13C225.08 171.05 227.96 169.96 228.71 168.57C229.1 167.85 228.92 167.06 228.2 166.35C225.75 163.9 224.21 154.67 224.15 154.27L224.71 154.18C224.73 154.27 226.28 163.63 228.6 165.95C229.49 166.84 229.71 167.9 229.21 168.85C228.56 170.07 226.67 171.05 223.71 171.05V171.04Z" fill="black"/>
<path d="M223.64 180.78C219.91 180.78 216.82 176.95 216.68 176.78L217.13 176.42C217.13 176.42 220.37 180.42 223.95 180.19C225.83 180.07 227.52 178.81 228.95 176.45L229.44 176.75C227.9 179.28 226.07 180.64 223.99 180.77C223.88 180.77 223.76 180.78 223.65 180.78H223.64Z" fill="black"/>
<path d="M215.07 167.07C215.07 168.91 212.37 170.41 209.04 170.41C205.71 170.41 203.01 168.92 203.01 167.07C203.01 165.22 205.71 163.73 209.04 163.73C212.37 163.73 215.07 165.22 215.07 167.07Z" fill="#D033A8"/>
<path d="M236.24 163.84C235.95 165.94 235.56 168.03 235.09 170.08C233.08 169.54 231.69 168.4 231.69 167.07C231.69 165.51 233.62 164.2 236.24 163.84Z" fill="#D033A8"/>
<path d="M181.53 165.58C179.46 165.28 175.59 162.27 176.03 156.65C176.17 154.94 176.75 153.74 177.78 153.09C179.43 152.04 181.58 152.84 181.67 152.88L181.47 153.41C181.47 153.41 179.49 152.68 178.09 153.57C177.23 154.12 176.73 155.17 176.61 156.69C176.21 161.7 179.61 164.73 181.62 165.01L181.54 165.57L181.53 165.58Z" fill="black"/>
</svg>
